/* XPM */
static char *result[] = {
/* columns rows colors chars-per-pixel */
"32 32 22 1 ",
"  c #598527",
". c #5B8728",
"X c #608D29",
"o c #618D2A",
"O c #628E2A",
"+ c #628F2A",
"@ c #65912B",
"# c #67942B",
"$ c #69962C",
"% c #6A972D",
"& c #6D9A2E",
"* c #73A12F",
"= c #77A02E",
"- c #75A330",
"; c #76A430",
": c #77A430",
"> c #78A631",
", c #79A731",
"< c #7BA932",
"1 c #9ACA3C",
"2 c #9FBD6D",
"3 c None",
/* pixels */
"33333333333333333333333333333333",
"3333333333333      3333333333333",
"3333333333  33333333  3333333333",
"33333333 33333333333333 33333333",
"333333  3233333=33333333 3333333",
"33333 33333333===33333323 333333",
"3333 33333333=====33333333 33333",
"333333333333=======33333333 3333",
"333 33333333========33333333 333",
"33 33333333=========333333323333",
"33 33333333==========33333333 33",
"333333333333===3===3333333332 33",
"3 33        33=3==33111111133333",
"3 33         33333111111111333 3",
"3 33          3331111111111333 3",
"3 33     33    331111331111333 3",
"3 33     3333      33331111333 3",
"3 333 33                311333 3",
"3 3333   33333333333333   3333 3",
"3 33  33333333333333333333  3333",
"333 333333333333333333333333 333",
"33333333333333333333333333333333",
"33333333333333333333333333333333",
"33333333333333333333333333333333",
"33333333333333333333333333333333",
"33333333333333333333333333333333",
"3333o33333333:,<3333333333333333",
"33.3o3333&3333>3333*333$#@+33333",
"3333X333%33333;333-3333$33O33333",
"33333333333333333333333333333333",
"33333333333333333333333333333333",
"33333333333333333333333333333333"
};
