/* XPM */
static char *result[] = {
/* columns rows colors chars-per-pixel */
"16 16 6 1 ",
"  c #598527",
". c #77A02E",
"X c #77A531",
"o c #96C63B",
"O c #9ACA3C",
"+ c None",
/* pixels */
"++++++++++++++++",
"++++++++++++++++",
"+++++++.++++++++",
"++++++...+++++++",
"++++++....++++++",
"++++++....++++++",
"++    ++++OOOO++",
"++     ++OOOOO++",
"++         Xo+++",
"++++++++++++++++",
"++++++++++++++++",
"++++++++++++++++",
"++++++++++++++++",
"++++++++++++++++",
"++++++++++++++++",
"++++++++++++++++"
};
