/* XPM */
static char *result[] = {
/* columns rows colors chars-per-pixel */
"128 128 82 1 ",
"  c #598527",
". c #5A8627",
"X c #5A8628",
"o c #5A8728",
"O c #5B8728",
"+ c #5C8828",
"@ c #5C8928",
"# c #5D8928",
"$ c #5D8A29",
"% c #5E8A29",
"& c #5E8B29",
"* c #5F8B29",
"= c #5F8C29",
"- c #608C29",
"; c #608D29",
": c #618D29",
"> c #618D2A",
", c #618E2A",
"< c #628E2A",
"1 c #628F2A",
"2 c #638F2A",
"3 c #63902A",
"4 c #64912A",
"5 c #65912B",
"6 c #65922B",
"7 c #66922B",
"8 c #66932B",
"9 c #67932B",
"0 c #67942B",
"q c #67942C",
"w c #68942C",
"e c #68952C",
"r c #68962C",
"t c #69962C",
"y c #69962D",
"u c #6A972D",
"i c #6B972D",
"p c #6B982D",
"a c #6C992D",
"s c #6C9A2D",
"d c #6D9A2D",
"f c #6D992E",
"g c #6D9A2E",
"h c #6D9B2E",
"j c #6E9B2E",
"k c #6E9C2E",
"l c #6F9C2E",
"z c #6F9D2E",
"x c #709D2E",
"c c #709D2F",
"v c #709E2F",
"b c #719E2F",
"n c #719F2F",
"m c #729F2F",
"M c #72A02F",
"N c #73A12F",
"B c #77A02E",
"V c #73A130",
"C c #74A130",
"Z c #74A230",
"A c #75A230",
"S c #75A330",
"D c #76A330",
"F c #76A430",
"G c #77A430",
"H c #77A431",
"J c #77A531",
"K c #78A531",
"L c #78A631",
"P c #78A731",
"I c #79A731",
"U c #79A831",
"Y c #7AA831",
"T c #7AA832",
"R c #7BA932",
"E c #7CA932",
"W c #7CA933",
"Q c #7CAA32",
"! c #7CAA33",
"~ c #9ACA3C",
"^ c #9FBD6D",
"/ c None",
/* pixels */
"////////////////////////////////////////////////////////////////////////////////////////////////////////////////////////////////",
"////////////////////////////////////////////////////////////////////////////////////////////////////////////////////////////////",
"////////////////////////////////////////////////////////////////////////////////////////////////////////////////////////////////",
"////////////////////////////////////////////////////////////////////////////////////////////////////////////////////////////////",
"////////////////////////////////////////////////////////////////////////////////////////////////////////////////////////////////",
"///////////////////////////////////////////////////////                 ////////////////////////////////////////////////////////",
"//////////////////////////////////////////////////                           ///////////////////////////////////////////////////",
"//////////////////////////////////////////////                                   ///////////////////////////////////////////////",
"///////////////////////////////////////////          /////////////////////          ////////////////////////////////////////////",
"////////////////////////////////////////        ///////////////////////////////       //////////////////////////////////////////",
"//////////////////////////////////////       //////////////////^//////////////////       ///////////////////////////////////////",
"////////////////////////////////////      ///////////^^^^^^^^^^^^^^^^^^^^^///////////      /////////////////////////////////////",
"//////////////////////////////////      /////////^^^^^^^^^^^///////^^^^^^^^^^^/////////      ///////////////////////////////////",
"////////////////////////////////      ////////^^^^^^^/////////////////////^^^^^^^////////     //////////////////////////////////",
"///////////////////////////////     ///////^^^^^^/////////////////////////////^^^^^^///////     ////////////////////////////////",
"/////////////////////////////     ///////^^^^^///////////////////////////////////^^^^^///////     //////////////////////////////",
"////////////////////////////    ///////^^^^////////////////////////////////////////^^^^^//////     /////////////////////////////",
"///////////////////////////    //////^^^^/////////////////////BBB/////////////////////^^^^//////    ////////////////////////////",
"/////////////////////////     /////^^^^//////////////////////BBBBB//////////////////////^^^//////     //////////////////////////",
"////////////////////////    //////^^^///////////////////////BBBBBBB//////////////////////^^^^//////    /////////////////////////",
"///////////////////////    /////^^^^///////////////////////BBBBBBBBB///////////////////////^^^//////    ////////////////////////",
"//////////////////////    /////^^^///////////////////////BBBBBBBBBBBB////////////////////////^^^/////    ///////////////////////",
"/////////////////////    /////^^^///////////////////////BBBBBBBBBBBBBB////////////////////////^^^/////    //////////////////////",
"////////////////////    ////^^^////////////////////////BBBBBBBBBBBBBBBB////////////////////////^^^/////    /////////////////////",
"///////////////////    ////^^^////////////////////////BBBBBBBBBBBBBBBBBB/////////////////////////^^^////    ////////////////////",
"//////////////////    ////^^^/////////////////////////BBBBBBBBBBBBBBBBBBB/////////////////////////^^^////    ///////////////////",
"/////////////////    ////^^^/////////////////////////BBBBBBBBBBBBBBBBBBBBB/////////////////////////^^^////    //////////////////",
"////////////////    ////^^^/////////////////////////BBBBBBBBBBBBBBBBBBBBBBB/////////////////////////^^^////   //////////////////",
"////////////////   ////^^^/////////////////////////BBBBBBBBBBBBBBBBBBBBBBBBB/////////////////////////^^^////   /////////////////",
"///////////////   ////^^^/////////////////////////BBBBBBBBBBBBBBBBBBBBBBBBBB//////////////////////////^^^////   ////////////////",
"//////////////   ////^^^//////////////////////////BBBBBBBBBBBBBBBBBBBBBBBBBBB//////////////////////////^^/////   ///////////////",
"/////////////    ////^^//////////////////////////BBBBBBBBBBBBBBBBBBBBBBBBBBBBB//////////////////////////^^////   ///////////////",
"/////////////   ////^^//////////////////////////BBBBBBBBBBBBBBBBBBBBBBBBBBBBBB///////////////////////////^^////   //////////////",
"////////////   ////^^///////////////////////////BBBBBBBBBBBBBBBBBBBBBBBBBBBBBBB//////////////////////////^^^////   /////////////",
"////////////   ///^^^//////////////////////////BBBBBBBBBBBBBBBBBBBBBBBBBBBBBBBBB//////////////////////////^^^///   /////////////",
"///////////   ////^^//////////////////////////BBBBBBBBBBBBBBBBBBBBBBBBBBBBBBBBBB///////////////////////////^^////   ////////////",
"//////////   ////^^///////////////////////////BBBBBBBBBBBBBBBBBBBBBBBBBBBBBBBBBBB///////////////////////////^^////  ////////////",
"//////////   ///^^^//////////////////////////BBBBBBBBBBBBBBBBBBBBBBBBBBBBBBBBBBBB///////////////////////////^^////   ///////////",
"/////////   ////^^///////////////////////////BBBBBBBBBBBBBBBBBB/BBBBBBBBBBBBBBBBBB///////////////////////////^^////  ///////////",
"/////////   ///^^///////////////////////////BBBBBBBBBBBBBBBBBBB/BBBBBBBBBBBBBBBBBB///////////////////////////^^^///   //////////",
"////////   ////^^///////////////////////////BBBBBBBBBBBBBBBBBBB/BBBBBBBBBBBBBBBBBBB///////////////////////////^^////  //////////",
"////////   ///^^////////////////////////////BBBBBBBBBBBBBBBBBB//BBBBBBBBBBBBBBBBBBB////////////////////////////^^///   /////////",
"////////  ////^^///////////////////////////BBBBBBBBBBBBBBBBBBB//BBBBBBBBBBBBBBBBBBB////////////////////////////^^///   /////////",
"///////   ///^^////////////////////////////BBBBBBBBBBBBBBBBBBB//BBBBBBBBBBBBBBBBBBBB////////////////////////////^^///   ////////",
"///////   ///^^///////////////////////////////BBBBBBBBBBBBBBBB///BBBBBBBBBBBBBBBB///////////////////////////////^^///   ////////",
"///////  ////^^//////////////////////////////////BBBBBBBBBBBBB///BBBBBBBBBBBBB//////////////////////////////////^^////  ////////",
"//////   ///^^/////////////////////////////////////BBBBBBBBBBB///BBBBBBBBBBB/////////////////////////////////////^^///   ///////",
"//////   ///^^///                     //////////////BBBBBBBBBB///BBBBBBBBB///////////////~~~~~~~~~~~~~~~~~~~~~///^^///   ///////",
"//////  ///^^////                         ////////////BBBBBBBB///BBBBBBBB////////////~~~~~~~~~~~~~~~~~~~~~~~~~////^^///  ///////",
"/////   ///^^////                            //////////BBBBBBB///BBBBBBB//////////~~~~~~~~~~~~~~~~~~~~~~~~~~~~////^^///  ///////",
"/////   ///^^////                              /////////BBBBB////BBBBBB/////////~~~~~~~~~~~~~~~~~~~~~~~~~~~~~~////^^///   //////",
"/////   ///^^////                                ////////BBBB////BBBBB////////~~~~~~~~~~~~~~~~~~~~~~~~~~~~~~~~/////^///   //////",
"/////  ///^^/////                                  ///////BBB////BBBB///////~~~~~~~~~~~~~~~~~~~~~~~~~~~~~~~~~~/////^^///  //////",
"////   ///^^/////                                   ///////BB/////BB//////~~~~~~~~~~~~~~~~~~~~~~~~~~~~~~~~~~~~/////^^///  //////",
"////   ///^^/////                                     //////B/////B//////~~~~~~~~~~~~~~~~~~~~~~~~~~~~~~~~~~~~~/////^^///   /////",
"////   ///^^/////                                      /////////////////~~~~~~~~~~~~~~~~~~~~~~~~~~~~~~~~~~~~~~/////^^///   /////",
"////   ///^//////             /                         ///////////////~~~~~~~~~~~~~~~~~~~~~~~~//~~~~~~~~~~~~~//////^^//   /////",
"////  ///^^//////              //                        /////////////~~~~~~~~~~~~~~~~~~~~~~~///~~~~~~~~~~~~~~//////^^//   /////",
"////  ///^^//////               ///                       ///////////~~~~~~~~~~~~~~~~~~~~~~////~~~~~~~~~~~~~~~//////^^///  /////",
"////  ///^^//////                ////                      /////////~~~~~~~~~~~~~~~~~~~~~/////~~~~~~~~~~~~~~~~//////^^///  /////",
"////  ///^^//////                 /////                    ////////~~~~~~~~~~~~~~~~~~~~//////~~~~~~~~~~~~~~~~~//////^^///  /////",
"///   ///^^//////                  //////                   //////~~~~~~~~~~~~~~~~~~~///////~~~~~~~~~~~~~~~~~~//////^^///  /////",
"///   ///^^//////                   ///////              /////////////~~~~~~~~~~~~~////////~~~~~~~~~~~~~~~~~~~//////^^///  /////",
"///   ///^^//////                    ////////    ////////////////////////////~~~~/////////~~~~~~~~~~~~~~~~~~~///////^^///  /////",
"///   ///^^//////                     ///////////////////////////////////////////////////~~~~~~~~~~~~~~~~~~~~///////^^///  /////",
"///   ///^^///////                   //////////////////////////   ////////////////////////~~~~~~~~~~~~~~~~~~~///////^^///  /////",
"///   ///^^///////                //////////////                                ////////////~~~~~~~~~~~~~~~~~///////^^///  /////",
"////  ///^^////////             //////////                                            /////////~~~~~~~~~~~~~////////^^///  /////",
"////  ///^^////////          /////////                                                    ////////~~~~~~~~~~////////^^///  /////",
"////  ///^^/////////      /////////                                                          ///////~~~~~~~/////////^^///  /////",
"////  ///^^/////////    ////////                                                                ///////~~~~/////////^^///  /////",
"////   //^^///////////////////                     //////////////////////////                     //////////////////^^//   /////",
"////   ///^////////////////               ////////////////////////////////////////////               ///////////////^///   /////",
"////   ///^^/////////////            //////////////////////////////////////////////////////            /////////////^///   /////",
"////   ///^////////////          //////////////////////////////////////////////////////////////          ///////////////   /////",
"////   //////////////         ////////////////////////////////////////////////////////////////////         /////////////  //////",
"/////  ////////////        //////////////////////////////////////////////////////////////////////////        ///////////  //////",
"/////   //////////       //////////////////////////////////////////////////////////////////////////////       /////////   //////",
"/////  /////////       //////////////////////////////////////////////////////////////////////////////////       ////////  //////",
"/////  ///////      ////////////////////////////////////////////////////////////////////////////////////////      //////////////",
"/////////////     ////////////////////////////////////////////////////////////////////////////////////////////     /////////////",
"///////////     ////////////////////////////////////////////////////////////////////////////////////////////////     ///////////",
"//////////    ////////////////////////////////////////////////////////////////////////////////////////////////////    //////////",
"////////    ////////////////////////////////////////////////////////////////////////////////////////////////////////    ////////",
"///////    //////////////////////////////////////////////////////////////////////////////////////////////////////////    ///////",
"//////   //////////////////////////////////////////////////////////////////////////////////////////////////////////////   //////",
"/////  //////////////////////////////////////////////////////////////////////////////////////////////////////////////////  /////",
"////  ////////////////////////////////////////////////////////////////////////////////////////////////////////////////////  ////",
"/// //////////////////////////////////////////////////////////////////////////////////////////////////////////////////////// ///",
"// ////////////////////////////////////////////////////////////////////////////////////////////////////////////////////////// //",
"////////////////////////////////////////////////////////////////////////////////////////////////////////////////////////////////",
"////////////////////////////////////////////////////////////////////////////////////////////////////////////////////////////////",
"////////////////////////////////////////////////////////////////////////////////////////////////////////////////////////////////",
"////////////////////////////////////////////////////////////////////////////////////////////////////////////////////////////////",
"////////////////////////////////////////////////////////////////////////////////////////////////////////////////////////////////",
"////////////////////////////////////////////////////////////////////////////////////////////////////////////////////////////////",
"////////////////////////////////////////////////////////////////////////////////////////////////////////////////////////////////",
"////////////////////////////////////////////////////////////////////////////////////////////////////////////////////////////////",
"////////////////////////////////////////////////////////////////////////////////////////////////////////////////////////////////",
"////////////////////////////////////////////////////////////////////////////////////////////////////////////////////////////////",
"////////////////////////////////////////////////////////////////////////////////////////////////////////////////////////////////",
"////////////////////////////////////////////////////////////////////////////////////////////////////////////////////////////////",
"////////////////////////////////////////////////////////////////////////////////////////////////////////////////////////////////",
"////////////////////////////////////////////////////////////////////////////////////////////////////////////////////////////////",
"//////////////////>>//////////////////////////////ASDFJKLIIYRRQ////////////////////////////////////////////////////////X////////",
"//////..//////////>,////////////////a/////////////ASFGJKLIUTRE!!////////////A/////////////////u///////////<///////////OX.///////",
"//////.XO/////////>,////////////////as////////////ASDFHKLIIYRR!W////////////AZ////////////////ute////////21///////////OX.///////",
"//////.XOO////////>,///////////////pagg/////////////////LI/////////////////SAZ////////////////uteq/////3321///////////OX.///////",
"//////.XOO++//////>,///////////////padg/////////////////LI/////////////////SAZN///////////////utew0///5432<///////////OX.///////",
"//////.XOO+@#/////>,//////////////ipasgg////////////////LP////////////////DSAZN///////////////uteq08765422<///////////OX.///////",
"//////.Xo/+@#$////>,//////////////pppagh////////////////KL////////////////DS/VNM//////////////ut//08765//1<///////////XX.///////",
"//////.XX///#$&*//:,/////////////upp//ghj///////////////JK///////////////DSA//NM//////////////yt///876///1<///////////XX.///////",
"////// .X////$&*=-:>/////////////uii//fgj///////////////JJ///////////////DS///MMn/////////////tr/////////1<///////////X. ///////",
"////// .X/////%*=-:>////////////tuu////gjj//////////////GJ//////////////DSA////mn/////////////tr/////////1<///////////X. ///////",
"////// .X//////&=-;>////////////tu/////ghk//////////////FF//////////////SA/////nbb////////////te/////////1<///////////X. ///////",
"////// .X////////-;>///////////ety//////gjj/////////////DF/////////////SSZ//////bv////////////te/////////1,///////////X. ///////",
"////// .X/////////-:///////////er///////gjk/////////////SD/////////////AZ///////cxz///////////re/////////<,///////////X. ///////",
"//////  .//////////-//////////9qe////////gjj////////////AS////////////ZZC////////xl///////////eq/////////<>///////////.  ///////",
"////////////////////////////////////////////////////////////////////////////////////////////////////////////////////////////////",
"////////////////////////////////////////////////////////////////////////////////////////////////////////////////////////////////",
"////////////////////////////////////////////////////////////////////////////////////////////////////////////////////////////////",
"////////////////////////////////////////////////////////////////////////////////////////////////////////////////////////////////",
"////////////////////////////////////////////////////////////////////////////////////////////////////////////////////////////////",
"////////////////////////////////////////////////////////////////////////////////////////////////////////////////////////////////",
"////////////////////////////////////////////////////////////////////////////////////////////////////////////////////////////////",
"////////////////////////////////////////////////////////////////////////////////////////////////////////////////////////////////",
"////////////////////////////////////////////////////////////////////////////////////////////////////////////////////////////////",
"////////////////////////////////////////////////////////////////////////////////////////////////////////////////////////////////"
};
