/* XPM */
static char *result[] = {
/* columns rows colors chars-per-pixel */
"64 64 52 1 ",
"  c #598527",
". c #5A8627",
"X c #5A8628",
"o c #5B8728",
"O c #5C8828",
"+ c #5D8929",
"@ c #5F8B29",
"# c #608C29",
"$ c #608D29",
"% c #618D29",
"& c #618D2A",
"* c #618E2A",
"= c #628E2A",
"- c #628F2A",
"; c #638F2A",
": c #64912B",
"> c #65922B",
", c #66932B",
"< c #67932B",
"1 c #67942C",
"2 c #68952C",
"3 c #68962C",
"4 c #69962C",
"5 c #69962D",
"6 c #6A962D",
"7 c #6A972D",
"8 c #6B982D",
"9 c #6C992D",
"0 c #6D9A2E",
"q c #6E9B2E",
"w c #6F9C2E",
"e c #709D2E",
"r c #719E2F",
"t c #729F2F",
"y c #73A02F",
"u c #73A12F",
"i c #77A02E",
"p c #74A230",
"a c #75A230",
"s c #75A330",
"d c #76A430",
"f c #77A531",
"g c #78A531",
"h c #78A631",
"j c #78A731",
"k c #79A731",
"l c #7AA831",
"z c #7BA932",
"x c #7CAA32",
"c c #9ACA3C",
"v c #9FBD6D",
"b c None",
/* pixels */
"bbbbbbbbbbbbbbbbbbbbbbbbbbbbbbbbbbbbbbbbbbbbbbbbbbbbbbbbbbbbbbbb",
"bbbbbbbbbbbbbbbbbbbbbbbbbbbbbbbbbbbbbbbbbbbbbbbbbbbbbbbbbbbbbbbb",
"bbbbbbbbbbbbbbbbbbbbbbbbbbbbbbb  bbbbbbbbbbbbbbbbbbbbbbbbbbbbbbb",
"bbbbbbbbbbbbbbbbbbbbbbbb                bbbbbbbbbbbbbbbbbbbbbbbb",
"bbbbbbbbbbbbbbbbbbbbb    bbbbbbbbbbbbb     bbbbbbbbbbbbbbbbbbbbb",
"bbbbbbbbbbbbbbbbbbb   bbbbbbvvvvvvvbbbbbbb   bbbbbbbbbbbbbbbbbbb",
"bbbbbbbbbbbbbbbbb  bbbbbvvvvbbbbbbbbvvvvbbbb   bbbbbbbbbbbbbbbbb",
"bbbbbbbbbbbbbbb  bbbbvvvbbbbbbbbbbbbbbbbvvbbbb  bbbbbbbbbbbbbbbb",
"bbbbbbbbbbbbbb  bbbvvbbbbbbbbbbibbbbbbbbbbvvbbbb  bbbbbbbbbbbbbb",
"bbbbbbbbbbbb  bbbvvbbbbbbbbbbbiiibbbbbbbbbbbvvbbb  bbbbbbbbbbbbb",
"bbbbbbbbbbb  bbbvbbbbbbbbbbbbiiiiibbbbbbbbbbbbvvbb  bbbbbbbbbbbb",
"bbbbbbbbbb  bbvvbbbbbbbbbbbbiiiiiiibbbbbbbbbbbbvvbb  bbbbbbbbbbb",
"bbbbbbbbb  bbvvbbbbbbbbbbbbiiiiiiiiibbbbbbbbbbbbbvbb  bbbbbbbbbb",
"bbbbbbbb  bbvvbbbbbbbbbbbbiiiiiiiiiiibbbbbbbbbbbbbvbb  bbbbbbbbb",
"bbbbbbbb bbvvbbbbbbbbbbbbiiiiiiiiiiiiibbbbbbbbbbbbbvbb  bbbbbbbb",
"bbbbbbb bbvvbbbbbbbbbbbbbiiiiiiiiiiiiiibbbbbbbbbbbbbvbb  bbbbbbb",
"bbbbbb  bbvbbbbbbbbbbbbbiiiiiiiiiiiiiiibbbbbbbbbbbbbbvbb bbbbbbb",
"bbbbbb bbvbbbbbbbbbbbbbiiiiiiiiiiiiiiiiibbbbbbbbbbbbbvbb  bbbbbb",
"bbbbb  bvbbbbbbbbbbbbbbiiiiiiiiiiiiiiiiibbbbbbbbbbbbbbvbb bbbbbb",
"bbbbb bbvbbbbbbbbbbbbbiiiiiiiiiiiiiiiiiiibbbbbbbbbbbbbbvb  bbbbb",
"bbbb  bvbbbbbbbbbbbbbbiiiiiiiiibiiiiiiiiibbbbbbbbbbbbbbvbb bbbbb",
"bbbb bbvbbbbbbbbbbbbbbiiiiiiiiibiiiiiiiiiibbbbbbbbbbbbbbvb  bbbb",
"bbb  bvbbbbbbbbbbbbbbbbbiiiiiiibiiiiiiiibbbbbbbbbbbbbbbbvbb bbbb",
"bbb bbvbbb       bbbbbbbbbiiiiibiiiiiibbbbbbbbccccccccbbbvb bbbb",
"bbb bbvb              bbbbbiiiibiiiibbbbbbcccccccccccccbbvb  bbb",
"bb  bvbb                bbbbiiibbiibbbbccccccccccccccccbbvbb bbb",
"bb  bvbb                  bbbiibbibbbbcccccccccccccccccbbvbb bbb",
"bb bbvbb                   bbbbbbbbbcccccccccccccccccccbbbvb bbb",
"bb bbvbb       b            bbbbbbbccccccccccccbcccccccbbbvb bbb",
"bb bbvbb        bb           bbbbbcccccccccccbbccccccccbbbvb  bb",
"bb bbbbb         bbb          bbbccccccccccbbbcccccccccbbbvb  bb",
"bb bvbbbb         bbbb     bbbbbbbbbbccccbbbbccccccccccbbbvb  bb",
"bb bvbbbb          bbbbbbbbbbbbbbbbbbbbbbbbbbccccccccccbbbvb  bb",
"bb bbbbbb        bbbbb                    bbbbbcccccccbbbbvb  bb",
"bb bbvbbbb    bbbb                            bbbcccccbbbbvb  bb",
"bb bbvbbbb bbbb                                  bbbcbbbbbvb  bb",
"bb bbvbbbbbbb       bbbbbbbbbbbbbbbbbbbbbbbb       bbbbbbbvb bbb",
"bb  bbbbbbb     bbbbbbbbbbbbbbbbbbbbbbbbbbbbbbbb     bbbbbbb bbb",
"bb  bbbbb    bbbbbbbbbbbbbbbbbbbbbbbbbbbbbbbbbbbbbb    bbbbb bbb",
"bbbbbbbb   bbbbbbbbbbbbbbbbbbbbbbbbbbbbbbbbbbbbbbbbbb   bbbbbbbb",
"bbbbbb   bbbbbbbbbbbbbbbbbbbbbbbbbbbbbbbbbbbbbbbbbbbbbb   bbbbbb",
"bbbbb  bbbbbbbbbbbbbbbbbbbbbbbbbbbbbbbbbbbbbbbbbbbbbbbbbb  bbbbb",
"bbb  bbbbbbbbbbbbbbbbbbbbbbbbbbbbbbbbbbbbbbbbbbbbbbbbbbbbbb  bbb",
"bb bbbbbbbbbbbbbbbbbbbbbbbbbbbbbbbbbbbbbbbbbbbbbbbbbbbbbbbbbb bb",
"bbbbbbbbbbbbbbbbbbbbbbbbbbbbbbbbbbbbbbbbbbbbbbbbbbbbbbbbbbbbbbbb",
"bbbbbbbbbbbbbbbbbbbbbbbbbbbbbbbbbbbbbbbbbbbbbbbbbbbbbbbbbbbbbbbb",
"bbbbbbbbbbbbbbbbbbbbbbbbbbbbbbbbbbbbbbbbbbbbbbbbbbbbbbbbbbbbbbbb",
"bbbbbbbbbbbbbbbbbbbbbbbbbbbbbbbbbbbbbbbbbbbbbbbbbbbbbbbbbbbbbbbb",
"bbbbbbbbbbbbbbbbbbbbbbbbbbbbbbbbbbbbbbbbbbbbbbbbbbbbbbbbbbbbbbbb",
"bbbbbbbbbbbbbbbbbbbbbbbbbbbbbbbbbbbbbbbbbbbbbbbbbbbbbbbbbbbbbbbb",
"bbbbbbbbbbbbbbbbbbbbbbbbbbbbbbbbbbbbbbbbbbbbbbbbbbbbbbbbbbbbbbbb",
"bbbbbbbbbbbbbbbbbbbbbbbbbbbbbbbbbbbbbbbbbbbbbbbbbbbbbbbbbbbbbbbb",
"bbbbbbbbb&bbbbbbbbbbbbbbbsdfjlzxbbbbbbbbbbbbbbbbbbbbbbbbbbbXbbbb",
"bbb.obbbb&bbbbbbbb9bbbbbbbbfkbbbbbbbbbabbbbbbbb52bbb;=bbbbbXbbbb",
"bbb.oObbb&bbbbbbb890bbbbbbbbhbbbbbbbbspubbbbbbb42<b:;=bbbbbXbbbb",
"bbb.bO+bb&bbbbbbb8b0bbbbbbbbgbbbbbbbbsbybbbbbbb4b,>b-=bbbbbXbbbb",
"bbb.bbb@#&bbbbbb67b0qbbbbbbbfbbbbbbbsabtrbbbbbb4bbbb-=bbbbbXbbbb",
"bbb.bbbb#%bbbbbb4bbbqbbbbbbbdbbbbbbbabbbrbbbbbb3bbbb=*bbbbb.bbbb",
"bbb bbbbb$bbbbb12bbb0qbbbbbbsbbbbbbapbbbewbbbbb2bbbb=&bbbbb.bbbb",
"bbbbbbbbbbbbbbbbbbbbbbbbbbbbbbbbbbbbbbbbbbbbbbbbbbbbbbbbbbbbbbbb",
"bbbbbbbbbbbbbbbbbbbbbbbbbbbbbbbbbbbbbbbbbbbbbbbbbbbbbbbbbbbbbbbb",
"bbbbbbbbbbbbbbbbbbbbbbbbbbbbbbbbbbbbbbbbbbbbbbbbbbbbbbbbbbbbbbbb",
"bbbbbbbbbbbbbbbbbbbbbbbbbbbbbbbbbbbbbbbbbbbbbbbbbbbbbbbbbbbbbbbb",
"bbbbbbbbbbbbbbbbbbbbbbbbbbbbbbbbbbbbbbbbbbbbbbbbbbbbbbbbbbbbbbbb"
};
